<svg version="1.1" xmlns="http://www.w3.org/2000/svg" xmlns:xlink="http://www.w3.org/1999/xlink" width="500" height="500"><g data-paper-data="{&quot;description&quot;:&quot;Logo for Telephone Book\n=======================\n\nThis logo was generated by MarkMaker at http://emblemmatic.org/markmaker/ and may be composed of elements designed by others.\n\nThe font is Sura Bold designed by Carolina Giovagnoli and released under the OFL license via Google Fonts: https://www.google.com/fonts/specimen/Sura. The font includes this copyright statement: Copyright 2015 by Carolina Giovagnoli. All rights reserved.\n\nMarkMaker uses semantic data from the Princeton University WordNet database http://wordnet.princeton.edu and font descriptions from Google Fonts https://www.google.com/fonts.&quot;}" fill="none" fill-rule="nonzero" stroke="none" stroke-width="none" stroke-linecap="butt" stroke-linejoin="miter" stroke-miterlimit="10" stroke-dasharray="" stroke-dashoffset="0" font-family="none" font-weight="none" font-size="none" text-anchor="none" style="mix-blend-mode: normal"><path d="M50,355.17687v-210.35374h400v210.35374z" fill="#1bb6b6" stroke-width="0"></path><g data-paper-data="{&quot;elementType&quot;:&quot;logo&quot;}" fill="#ffffff" stroke-width="1"><g data-paper-data="{&quot;elementType&quot;:&quot;text&quot;}"><g data-paper-data="{&quot;baseline&quot;:72.412109375,&quot;elementType&quot;:&quot;row&quot;}"><g data-paper-data="{&quot;baselineProportion&quot;:0.9743758212877792,&quot;fontSize&quot;:100,&quot;baseline&quot;:72.412109375,&quot;elementType&quot;:&quot;word&quot;}"><path d="M100.60465,304.25705c-0.06303,-1.01905 -0.15759,-1.76495 -0.28365,-2.23771c0,-0.02101 -0.0998,-0.26789 -0.29941,-0.74065c-0.96652,-0.10506 -1.78071,-0.15759 -2.44257,-0.15759h-1.65464c-0.06303,0.3677 -0.12607,0.81944 -0.1891,1.35523c-0.06303,0.53579 -0.09455,0.95602 -0.09455,1.26068v11.26733c0,1.14512 0.09455,2.39004 0.28365,3.73477l2.09588,0.20486l-0.15759,2.44257c-0.30466,-0.02101 -1.04269,-0.05253 -2.21407,-0.09455c-1.17138,-0.04202 -2.51873,-0.06303 -4.04206,-0.06303c-0.61983,0 -1.26593,0.02101 -1.9383,0.06303c-0.67236,0.04202 -1.1031,0.07354 -1.2922,0.09455l-0.15759,-2.25347l2.1274,-0.39396c0.02101,-0.12607 0.07354,-0.53842 0.15759,-1.23704c0.08405,-0.69863 0.12607,-1.21078 0.12607,-1.53645v-11.26733c0,-0.88248 -0.04202,-1.67828 -0.12607,-2.38741c-0.08405,-0.70913 -0.13657,-1.10572 -0.15759,-1.18977h-1.51282c-0.64085,0 -1.50231,0.05253 -2.58439,0.15759c-0.1891,0.47276 -0.28891,0.71964 -0.29941,0.74065c-0.12607,0.47276 -0.22062,1.21866 -0.28365,2.23771l-2.33226,-0.15759l0.23638,-5.35789l0.61458,-0.58306c0.32568,0.04202 0.95076,0.10506 1.87526,0.1891c0.9245,0.08405 1.52332,0.12607 1.79647,0.12607h10.52668c0.26264,0 0.86146,-0.04202 1.79647,-0.12607c0.935,-0.08405 1.56009,-0.14708 1.87526,-0.1891l0.61458,0.58306l0.26789,5.35789z" data-paper-data="{&quot;elementType&quot;:&quot;letter&quot;,&quot;baseline&quot;:71.484375,&quot;baselineProportion&quot;:0.9932157394843962,&quot;fontSize&quot;:100}"></path><path d="M108.08679,298.31609c0.24163,0.02101 0.72226,0.05253 1.4419,0.09455c0.71964,0.04202 1.31584,0.06303 1.78859,0.06303h8.65142c0.28365,0 0.88773,-0.04202 1.81223,-0.12607c0.9245,-0.08405 1.54959,-0.14708 1.87526,-0.1891l0.59882,0.58306l0.23638,5.02696l-2.33226,0.15759c-0.12607,-1.02956 -0.22062,-1.66515 -0.28365,-1.90678c-0.06303,-0.28365 -0.17334,-0.54104 -0.33093,-0.77217c-0.86146,-0.08405 -1.70717,-0.12607 -2.53712,-0.12607h-3.56142c-0.08405,1.54433 -0.12607,2.4163 -0.12607,2.61591v4.61724c0.21011,0.02101 0.48851,0.03152 0.8352,0.03152h1.81223c0.28365,0 0.56993,-0.03677 0.85884,-0.11031c0.28891,-0.07354 0.47538,-0.13657 0.55943,-0.1891l0.29941,-2.06436l2.00133,0.17334l-0.03152,2.67895c0,0.88248 0.01051,1.71505 0.03152,2.49772c0.02101,0.78267 0.04202,1.31584 0.06303,1.59949l-2.06436,0.1891l-0.29941,-1.9383c-0.14708,-0.02101 -0.46225,-0.05778 -0.94551,-0.11031c-0.48326,-0.05253 -0.85621,-0.07879 -1.11885,-0.07879h-0.99279c-0.51478,0 -0.85096,0.01051 -1.00854,0.03152v3.93963c0,0.98753 0.03152,2.1274 0.09455,3.4196h4.03418c0.79843,0 1.62838,-0.0893 2.48984,-0.26789c0.28365,-0.51478 0.48851,-0.97703 0.61458,-1.38675c0.1891,-0.7354 0.32042,-1.34473 0.39396,-1.82799l2.25347,0.15759l-0.48851,5.67306l-0.61458,0.58306c-0.32568,-0.02101 -0.87985,-0.04728 -1.66252,-0.07879c-0.78267,-0.03152 -1.45241,-0.04728 -2.00921,-0.04728h-9.10842c-0.77742,0.02101 -1.46554,0.04728 -2.06436,0.07879c-0.59882,0.03152 -0.99804,0.05778 -1.19765,0.07879l-0.15759,-2.25347l2.1274,-0.39396c0.04202,-0.16809 0.10243,-0.59094 0.18122,-1.26856c0.07879,-0.67762 0.11819,-1.17926 0.11819,-1.50494v-11.26733c0,-1.57585 -0.0998,-2.76824 -0.29941,-3.57718l-2.09588,-0.3782z" data-paper-data="{&quot;elementType&quot;:&quot;letter&quot;,&quot;baseline&quot;:71.484375,&quot;baselineProportion&quot;:0.9932157394843962,&quot;fontSize&quot;:100}"></path><path d="M138.71817,301.1211c-0.07354,0.34669 -0.14183,0.79318 -0.20486,1.33947c-0.06303,0.54629 -0.09455,0.97177 -0.09455,1.27644v11.26733c0,1.07158 0.0893,2.21144 0.26789,3.4196h3.02563c0.84045,0 1.6704,-0.0893 2.48984,-0.26789c0.38871,-0.84045 0.59357,-1.3027 0.61458,-1.38675c0.1891,-0.7354 0.31517,-1.34473 0.3782,-1.82799l2.26922,0.15759l-0.48851,5.67306l-0.61458,0.58306c-0.32568,-0.02101 -0.87985,-0.04728 -1.66252,-0.07879c-0.78267,-0.03152 -1.45241,-0.04728 -2.00921,-0.04728h-8.30473c-0.61983,0 -1.26331,0.02101 -1.93042,0.06303c-0.66711,0.04202 -1.10047,0.07354 -1.30008,0.09455l-0.15759,-2.25347l2.1274,-0.39396c0.02101,-0.12607 0.07617,-0.53842 0.16546,-1.23704c0.0893,-0.69863 0.13395,-1.21078 0.13395,-1.53645v-11.26733c0,-0.94551 -0.0499,-1.76233 -0.14971,-2.45045c-0.0998,-0.68812 -0.14971,-1.0637 -0.14971,-1.12673l-2.09588,-0.3782l0.15759,-2.42681c0.1891,0.02101 0.61983,0.05253 1.2922,0.09455c0.67236,0.04202 1.31846,0.06303 1.9383,0.06303c1.52332,0 2.8733,-0.02101 4.04994,-0.06303c1.17663,-0.04202 1.91728,-0.07354 2.22195,-0.09455l0.15759,2.61591z" data-paper-data="{&quot;elementType&quot;:&quot;letter&quot;,&quot;baseline&quot;:70.99609375,&quot;baselineProportion&quot;:0.9931693989071039,&quot;fontSize&quot;:100}"></path><path d="M152.64554,298.31609c0.24163,0.02101 0.72226,0.05253 1.4419,0.09455c0.71964,0.04202 1.31584,0.06303 1.78859,0.06303h8.65142c0.28365,0 0.88773,-0.04202 1.81223,-0.12607c0.9245,-0.08405 1.54959,-0.14708 1.87526,-0.1891l0.59882,0.58306l0.23638,5.02696l-2.33226,0.15759c-0.12607,-1.02956 -0.22062,-1.66515 -0.28365,-1.90678c-0.06303,-0.28365 -0.17334,-0.54104 -0.33093,-0.77217c-0.86146,-0.08405 -1.70717,-0.12607 -2.53712,-0.12607h-3.56142c-0.08405,1.54433 -0.12607,2.4163 -0.12607,2.61591v4.61724c0.21011,0.02101 0.48851,0.03152 0.8352,0.03152h1.81223c0.28365,0 0.56993,-0.03677 0.85884,-0.11031c0.28891,-0.07354 0.47538,-0.13657 0.55943,-0.1891l0.29941,-2.06436l2.00133,0.17334l-0.03152,2.67895c0,0.88248 0.01051,1.71505 0.03152,2.49772c0.02101,0.78267 0.04202,1.31584 0.06303,1.59949l-2.06436,0.1891l-0.29941,-1.9383c-0.14708,-0.02101 -0.46225,-0.05778 -0.94551,-0.11031c-0.48326,-0.05253 -0.85621,-0.07879 -1.11885,-0.07879h-0.99279c-0.51478,0 -0.85096,0.01051 -1.00854,0.03152v3.93963c0,0.98753 0.03152,2.1274 0.09455,3.4196h4.03418c0.79843,0 1.62838,-0.0893 2.48984,-0.26789c0.28365,-0.51478 0.48851,-0.97703 0.61458,-1.38675c0.1891,-0.7354 0.32042,-1.34473 0.39396,-1.82799l2.25347,0.15759l-0.48851,5.67306l-0.61458,0.58306c-0.32568,-0.02101 -0.87985,-0.04728 -1.66252,-0.07879c-0.78267,-0.03152 -1.45241,-0.04728 -2.00921,-0.04728h-9.10842c-0.77742,0.02101 -1.46554,0.04728 -2.06436,0.07879c-0.59882,0.03152 -0.99804,0.05778 -1.19765,0.07879l-0.15759,-2.25347l2.1274,-0.39396c0.04202,-0.16809 0.10243,-0.59094 0.18122,-1.26856c0.07879,-0.67762 0.11819,-1.17926 0.11819,-1.50494v-11.26733c0,-1.57585 -0.0998,-2.76824 -0.29941,-3.57718l-2.09588,-0.3782z" data-paper-data="{&quot;elementType&quot;:&quot;letter&quot;,&quot;baseline&quot;:71.484375,&quot;baselineProportion&quot;:0.9932157394843962,&quot;fontSize&quot;:100}"></path><path d="M182.97751,312.48299v2.52136c0,1.14512 0.0998,2.39004 0.29941,3.73477l2.41105,0.20486l-0.15759,2.44257c-0.34669,-0.02101 -1.14774,-0.05253 -2.40317,-0.09455c-1.25543,-0.04202 -2.65006,-0.06303 -4.18388,-0.06303c-0.61983,0 -1.26331,0.02101 -1.93042,0.06303c-0.66711,0.04202 -1.10047,0.07354 -1.30008,0.09455l-0.15759,-2.25347l2.1274,-0.39396c0.02101,-0.12607 0.07617,-0.53842 0.16546,-1.23704c0.0893,-0.69863 0.13395,-1.21078 0.13395,-1.53645v-11.26733c0,-0.94551 -0.0499,-1.76233 -0.14971,-2.45045c-0.0998,-0.68812 -0.14971,-1.0637 -0.14971,-1.12673l-2.09588,-0.3782l0.15759,-2.42681c0.1891,0.02101 0.61458,0.05253 1.27644,0.09455c0.66186,0.04202 1.3027,0.06303 1.92254,0.06303c0.43073,0 1.0243,-0.02101 1.78071,-0.06303c0.75641,-0.04202 1.32371,-0.07354 1.70192,-0.09455c1.43928,-0.10506 2.5949,-0.15759 3.46687,-0.15759c2.30074,0 4.14449,0.62246 5.53123,1.86738c1.38675,1.24492 2.08012,2.97573 2.08012,5.19243c0,1.4813 -0.40447,2.77087 -1.2134,3.86871c-0.80894,1.09784 -1.88051,1.9383 -3.21473,2.52136c-1.33422,0.58306 -2.7735,0.8746 -4.31783,0.8746h-1.78071M188.30388,305.1868c0,-1.52332 -0.33881,-2.6343 -1.01642,-3.33292c-0.67762,-0.69863 -1.76758,-1.04794 -3.26989,-1.04794l-0.88248,0.03152c-0.10506,1.39725 -0.15759,2.36378 -0.15759,2.89956v6.09854h0.55155c1.4813,0 2.64743,-0.40972 3.49839,-1.22916c0.85096,-0.81944 1.27644,-1.95931 1.27644,-3.4196z" data-paper-data="{&quot;elementType&quot;:&quot;letter&quot;,&quot;baseline&quot;:71.484375,&quot;baselineProportion&quot;:0.9932157394843962,&quot;fontSize&quot;:100}"></path><path d="M220.30625,301.1211c-0.06303,0.34669 -0.12607,0.79318 -0.1891,1.33947c-0.06303,0.54629 -0.09455,0.97177 -0.09455,1.27644v11.26733c0,1.14512 0.09455,2.39004 0.28365,3.73477l2.09588,0.20486l-0.15759,2.44257c-0.30466,-0.02101 -1.04269,-0.05253 -2.21407,-0.09455c-1.17138,-0.04202 -2.51873,-0.06303 -4.04206,-0.06303c-0.61983,0 -1.26331,0.02101 -1.93042,0.06303c-0.66711,0.04202 -1.10047,0.07354 -1.30008,0.09455l-0.15759,-2.25347l2.1274,-0.39396c0.02101,-0.12607 0.07354,-0.53842 0.15759,-1.23704c0.08405,-0.69863 0.12607,-1.21078 0.12607,-1.53645v-4.47542h-8.93507v3.51415c0,1.14512 0.0998,2.39004 0.29941,3.73477l2.09588,0.20486l-0.15759,2.44257c-0.30466,-0.02101 -1.04269,-0.05253 -2.21407,-0.09455c-1.17138,-0.04202 -2.52399,-0.06303 -4.05781,-0.06303c-0.61983,0 -1.26331,0.02101 -1.93042,0.06303c-0.66711,0.04202 -1.10047,0.07354 -1.30008,0.09455l-0.15759,-2.25347l2.1274,-0.39396c0.02101,-0.12607 0.07617,-0.53842 0.16546,-1.23704c0.0893,-0.69863 0.13395,-1.21078 0.13395,-1.53645v-11.26733c0,-0.94551 -0.0499,-1.76233 -0.14971,-2.45045c-0.0998,-0.68812 -0.14971,-1.0637 -0.14971,-1.12673l-2.09588,-0.3782l0.15759,-2.42681c0.1891,0.02101 0.61983,0.05253 1.2922,0.09455c0.67236,0.04202 1.31846,0.06303 1.9383,0.06303c1.52332,0 2.8733,-0.02101 4.04994,-0.06303c1.17663,-0.04202 1.91728,-0.07354 2.22195,-0.09455l0.15759,2.61591l-2.1274,0.1891c-0.06303,0.34669 -0.12869,0.79318 -0.19698,1.33947c-0.06829,0.54629 -0.10243,0.97177 -0.10243,1.27644v4.93241l8.93507,-0.12607v-3.84507c0,-0.94551 -0.04728,-1.76233 -0.14183,-2.45045c-0.09455,-0.68812 -0.14183,-1.0637 -0.14183,-1.12673l-2.09588,-0.3782l0.15759,-2.42681c0.1891,0.02101 0.61983,0.05253 1.2922,0.09455c0.67236,0.04202 1.31846,0.06303 1.9383,0.06303c1.52332,0 2.8733,-0.02101 4.04994,-0.06303c1.17663,-0.04202 1.91203,-0.07354 2.20619,-0.09455l0.17334,2.61591z" data-paper-data="{&quot;elementType&quot;:&quot;letter&quot;,&quot;baseline&quot;:70.99609375,&quot;baselineProportion&quot;:0.9931693989071039,&quot;fontSize&quot;:100}"></path><path d="M251.03218,309.86707c0,2.4058 -0.47538,4.50693 -1.42614,6.3034c-0.95076,1.79647 -2.29549,3.1911 -4.03418,4.18388c-1.73869,0.99279 -3.76366,1.48918 -6.0749,1.48918c-2.30074,0 -4.32046,-0.49639 -6.05914,-1.48918c-1.73869,-0.99279 -3.08341,-2.38741 -4.03418,-4.18388c-0.95076,-1.79647 -1.42614,-3.8976 -1.42614,-6.3034c0,-2.4058 0.47538,-4.51219 1.42614,-6.31916c0.95076,-1.80698 2.29024,-3.20686 4.01842,-4.19964c1.72818,-0.99279 3.75315,-1.48918 6.0749,-1.48918c2.32175,0 4.34935,0.49639 6.08278,1.48918c1.73344,0.99279 3.07553,2.39267 4.0263,4.19964c0.95076,1.80698 1.42614,3.91336 1.42614,6.31916M233.79238,309.86707c0,2.99412 0.4675,5.21606 1.40251,6.66585c0.935,1.44978 2.36903,2.17467 4.30207,2.17467c1.93304,0 3.36969,-0.72489 4.30995,-2.17467c0.94026,-1.44978 1.41039,-3.67173 1.41039,-6.66585c0,-3.01513 -0.4675,-5.24758 -1.40251,-6.69736c-0.935,-1.44978 -2.37428,-2.17467 -4.31783,-2.17467c-1.93304,0 -3.36707,0.72489 -4.30207,2.17467c-0.935,1.44978 -1.40251,3.68224 -1.40251,6.69736z" data-paper-data="{&quot;elementType&quot;:&quot;letter&quot;,&quot;baseline&quot;:72.412109375,&quot;baselineProportion&quot;:0.9743758212877792,&quot;fontSize&quot;:100}"></path><path d="M280.35561,300.932l-2.14316,0.1891c-0.04202,0.32568 -0.0998,0.77217 -0.17334,1.33947c-0.07354,0.56731 -0.11031,0.99279 -0.11031,1.27644v11.26733v6.22461h-4.36511l-10.47941,-14.52934v8.30473c0,0.90349 0.04728,1.73606 0.14183,2.49772c0.09455,0.76166 0.14183,1.17401 0.14183,1.23704l2.09588,0.20486l-0.15759,2.44257c-0.21011,-0.02101 -0.77479,-0.05253 -1.69404,-0.09455c-0.91925,-0.04202 -2.14053,-0.06303 -3.66385,-0.06303c-0.61983,0 -1.26593,0.02101 -1.9383,0.06303c-0.67236,0.04202 -1.1031,0.07354 -1.2922,0.09455l-0.15759,-2.25347l2.1274,-0.39396c0.04202,-0.31517 0.10243,-0.7853 0.18122,-1.41039c0.07879,-0.62509 0.11819,-1.07946 0.11819,-1.36311v-11.26733c0,-0.68287 -0.03414,-1.36836 -0.10243,-2.05648c-0.06829,-0.68812 -0.13395,-1.19502 -0.19698,-1.5207l-2.09588,-0.3782l0.15759,-2.42681c0.19961,0.02101 0.63297,0.05253 1.30008,0.09455c0.66711,0.04202 1.31058,0.06303 1.93042,0.06303h3.29353l0.61458,0.6461c0.26264,0.43073 0.75378,1.25805 1.47342,2.48196c0.71964,1.22391 1.17401,1.9882 1.36311,2.29286l7.10709,9.9121v-9.10842c-0.01051,-0.84045 -0.11031,-2.03285 -0.29941,-3.57718l-2.09588,-0.3782l0.17334,-2.42681l3.21473,0.15759c1.1031,0 2.19306,-0.02101 3.26989,-0.06303c1.07683,-0.04202 1.77283,-0.07354 2.088,-0.09455z" data-paper-data="{&quot;elementType&quot;:&quot;letter&quot;,&quot;baseline&quot;:70.99609375,&quot;baselineProportion&quot;:0.9931693989071039,&quot;fontSize&quot;:100}"></path><path d="M285.85217,298.31609c0.24163,0.02101 0.72226,0.05253 1.4419,0.09455c0.71964,0.04202 1.31584,0.06303 1.78859,0.06303h8.65142c0.28365,0 0.88773,-0.04202 1.81223,-0.12607c0.9245,-0.08405 1.54959,-0.14708 1.87526,-0.1891l0.59882,0.58306l0.23638,5.02696l-2.33226,0.15759c-0.12607,-1.02956 -0.22062,-1.66515 -0.28365,-1.90678c-0.06303,-0.28365 -0.17334,-0.54104 -0.33093,-0.77217c-0.86146,-0.08405 -1.70717,-0.12607 -2.53712,-0.12607h-3.56142c-0.08405,1.54433 -0.12607,2.4163 -0.12607,2.61591v4.61724c0.21011,0.02101 0.48851,0.03152 0.8352,0.03152h1.81223c0.28365,0 0.56993,-0.03677 0.85884,-0.11031c0.28891,-0.07354 0.47538,-0.13657 0.55943,-0.1891l0.29941,-2.06436l2.00133,0.17334l-0.03152,2.67895c0,0.88248 0.01051,1.71505 0.03152,2.49772c0.02101,0.78267 0.04202,1.31584 0.06303,1.59949l-2.06436,0.1891l-0.29941,-1.9383c-0.14708,-0.02101 -0.46225,-0.05778 -0.94551,-0.11031c-0.48326,-0.05253 -0.85621,-0.07879 -1.11885,-0.07879h-0.99279c-0.51478,0 -0.85096,0.01051 -1.00854,0.03152v3.93963c0,0.98753 0.03152,2.1274 0.09455,3.4196h4.03418c0.79843,0 1.62838,-0.0893 2.48984,-0.26789c0.28365,-0.51478 0.48851,-0.97703 0.61458,-1.38675c0.1891,-0.7354 0.32042,-1.34473 0.39396,-1.82799l2.25347,0.15759l-0.48851,5.67306l-0.61458,0.58306c-0.32568,-0.02101 -0.87985,-0.04728 -1.66252,-0.07879c-0.78267,-0.03152 -1.45241,-0.04728 -2.00921,-0.04728h-9.10842c-0.77742,0.02101 -1.46554,0.04728 -2.06436,0.07879c-0.59882,0.03152 -0.99804,0.05778 -1.19765,0.07879l-0.15759,-2.25347l2.1274,-0.39396c0.04202,-0.16809 0.10243,-0.59094 0.18122,-1.26856c0.07879,-0.67762 0.11819,-1.17926 0.11819,-1.50494v-11.26733c0,-1.57585 -0.0998,-2.76824 -0.29941,-3.57718l-2.09588,-0.3782z" data-paper-data="{&quot;elementType&quot;:&quot;letter&quot;,&quot;baseline&quot;:71.484375,&quot;baselineProportion&quot;:0.9932157394843962,&quot;fontSize&quot;:100}"></path></g><g data-paper-data="{&quot;baselineProportion&quot;:0.9743758212877792,&quot;fontSize&quot;:100,&quot;baseline&quot;:72.412109375,&quot;elementType&quot;:&quot;word&quot;}"><path d="M323.9846,298.15851c1.31321,0 2.52399,0.22062 3.63234,0.66186c1.10835,0.44124 1.99082,1.07946 2.64743,1.91466c0.6566,0.8352 0.98491,1.82536 0.98491,2.97048c0,1.39725 -0.41497,2.58965 -1.24492,3.57718c-0.82995,0.98753 -1.91203,1.64414 -3.24625,1.96981v0.23638c1.6599,0.26264 2.98886,0.86409 3.9869,1.80435c0.99804,0.94026 1.49706,2.21932 1.49706,3.8372c0,2.04861 -0.73014,3.60344 -2.19043,4.66452c-1.46029,1.06107 -3.29878,1.59161 -5.51548,1.59161c-1.09259,0 -2.31125,-0.03152 -3.65597,-0.09455c-1.72293,-0.04202 -2.88381,-0.06303 -3.48263,-0.06303c-0.61983,0 -1.22654,0.02101 -1.82011,0.06303c-0.59357,0.04202 -0.9744,0.07354 -1.14249,0.09455l-0.17334,-2.25347l1.9383,-0.39396c0.06303,-0.34669 0.12869,-0.81944 0.19698,-1.41827c0.06829,-0.59882 0.10243,-1.05057 0.10243,-1.35523v-11.26733c0,-0.64085 -0.02626,-1.30533 -0.07879,-1.99345c-0.05253,-0.68812 -0.12607,-1.21603 -0.22062,-1.58373l-1.90678,-0.3782l0.17334,-2.42681c0.16809,0.02101 0.54892,0.05253 1.14249,0.09455c0.59357,0.04202 1.20027,0.06303 1.82011,0.06303c0.75641,0 1.83324,-0.05253 3.23049,-0.15759c0.45174,-0.02101 1.04269,-0.05253 1.77283,-0.09455c0.73014,-0.04202 1.24755,-0.06303 1.55221,-0.06303M321.58931,300.932c-0.02101,0.29416 -0.04202,0.72752 -0.06303,1.30008c-0.02101,0.57256 -0.03152,1.0742 -0.03152,1.50494v11.26733c0,1.52332 0.03152,2.73673 0.09455,3.64021c0.57781,0.06303 1.18189,0.09455 1.81223,0.09455c1.18714,0 2.13528,-0.35982 2.84441,-1.07946c0.70913,-0.71964 1.0637,-1.71505 1.0637,-2.98624c0,-2.52136 -1.41827,-3.77679 -4.2548,-3.76628h-0.33093l0.22062,-2.82077h0.20486c1.07158,0 1.90941,-0.33881 2.51348,-1.01642c0.60408,-0.67762 0.90611,-1.66778 0.90611,-2.97048c0,-0.9245 -0.3178,-1.70454 -0.95339,-2.34014c-0.63559,-0.63559 -1.44716,-0.95339 -2.43469,-0.95339c-0.3677,0 -0.89823,0.04202 -1.59161,0.12607z" data-paper-data="{&quot;elementType&quot;:&quot;letter&quot;,&quot;baseline&quot;:71.484375,&quot;baselineProportion&quot;:0.9932157394843962,&quot;fontSize&quot;:100}"></path><path d="M360.19449,309.86707c0,2.4058 -0.47538,4.50693 -1.42614,6.3034c-0.95076,1.79647 -2.29549,3.1911 -4.03418,4.18388c-1.73869,0.99279 -3.76366,1.48918 -6.0749,1.48918c-2.30074,0 -4.32046,-0.49639 -6.05914,-1.48918c-1.73869,-0.99279 -3.08341,-2.38741 -4.03418,-4.18388c-0.95076,-1.79647 -1.42614,-3.8976 -1.42614,-6.3034c0,-2.4058 0.47538,-4.51219 1.42614,-6.31916c0.95076,-1.80698 2.29024,-3.20686 4.01842,-4.19964c1.72818,-0.99279 3.75315,-1.48918 6.0749,-1.48918c2.32175,0 4.34935,0.49639 6.08278,1.48918c1.73344,0.99279 3.07553,2.39267 4.0263,4.19964c0.95076,1.80698 1.42614,3.91336 1.42614,6.31916M342.95469,309.86707c0,2.99412 0.4675,5.21606 1.40251,6.66585c0.935,1.44978 2.36903,2.17467 4.30207,2.17467c1.93304,0 3.36969,-0.72489 4.30995,-2.17467c0.94026,-1.44978 1.41039,-3.67173 1.41039,-6.66585c0,-3.01513 -0.4675,-5.24758 -1.40251,-6.69736c-0.935,-1.44978 -2.37428,-2.17467 -4.31783,-2.17467c-1.93304,0 -3.36707,0.72489 -4.30207,2.17467c-0.935,1.44978 -1.40251,3.68224 -1.40251,6.69736z" data-paper-data="{&quot;elementType&quot;:&quot;letter&quot;,&quot;baseline&quot;:72.412109375,&quot;baselineProportion&quot;:0.9743758212877792,&quot;fontSize&quot;:100}"></path><path d="M388.1942,309.86707c0,2.4058 -0.47538,4.50693 -1.42614,6.3034c-0.95076,1.79647 -2.29549,3.1911 -4.03418,4.18388c-1.73869,0.99279 -3.76366,1.48918 -6.0749,1.48918c-2.30074,0 -4.32046,-0.49639 -6.05914,-1.48918c-1.73869,-0.99279 -3.08341,-2.38741 -4.03418,-4.18388c-0.95076,-1.79647 -1.42614,-3.8976 -1.42614,-6.3034c0,-2.4058 0.47538,-4.51219 1.42614,-6.31916c0.95076,-1.80698 2.29024,-3.20686 4.01842,-4.19964c1.72818,-0.99279 3.75315,-1.48918 6.0749,-1.48918c2.32175,0 4.34935,0.49639 6.08278,1.48918c1.73344,0.99279 3.07553,2.39267 4.0263,4.19964c0.95076,1.80698 1.42614,3.91336 1.42614,6.31916M370.9544,309.86707c0,2.99412 0.4675,5.21606 1.40251,6.66585c0.935,1.44978 2.36903,2.17467 4.30207,2.17467c1.93304,0 3.36969,-0.72489 4.30995,-2.17467c0.94026,-1.44978 1.41039,-3.67173 1.41039,-6.66585c0,-3.01513 -0.4675,-5.24758 -1.40251,-6.69736c-0.935,-1.44978 -2.37428,-2.17467 -4.31783,-2.17467c-1.93304,0 -3.36707,0.72489 -4.30207,2.17467c-0.935,1.44978 -1.40251,3.68224 -1.40251,6.69736z" data-paper-data="{&quot;elementType&quot;:&quot;letter&quot;,&quot;baseline&quot;:72.412109375,&quot;baselineProportion&quot;:0.9743758212877792,&quot;fontSize&quot;:100}"></path><path d="M416.50908,321.38654c-0.34669,-0.02101 -1.14249,-0.05253 -2.38741,-0.09455c-1.24492,-0.04202 -2.62379,-0.06303 -4.13661,-0.06303c-0.64085,0 -1.26856,0.02101 -1.88314,0.06303c-0.61458,0.04202 -1.00592,0.07354 -1.17401,0.09455l-0.15759,-2.25347l1.24492,-0.26789c-0.9245,-1.4813 -1.55484,-2.45833 -1.89102,-2.93108c-0.28365,-0.32568 -1.05582,-1.28432 -2.3165,-2.87593c-1.26068,-1.59161 -2.10639,-2.66581 -2.53712,-3.22261l5.23182,-7.23315l0.91399,-1.6704l-1.00854,-0.1891l0.15759,-2.42681c0.16809,0.02101 0.56993,0.05253 1.20553,0.09455c0.63559,0.04202 1.27907,0.06303 1.93042,0.06303c1.4813,0 2.68945,-0.02101 3.62446,-0.06303c0.935,-0.04202 1.51282,-0.07354 1.73344,-0.09455l0.15759,2.61591l-1.87526,0.1891c-0.98753,0.94551 -1.80172,1.77546 -2.44257,2.48984l-4.16025,5.67306l2.3165,2.71046l4.28631,5.07424c0.16809,0.21011 0.76166,0.76691 1.78071,1.6704l1.54433,0.20486zM403.30346,298.31609l0.17334,2.61591l-2.03285,0.1891c-0.07354,0.34669 -0.14183,0.79318 -0.20486,1.33947c-0.06303,0.54629 -0.09455,0.97177 -0.09455,1.27644v11.26733c0.01051,1.13461 0.11031,2.37953 0.29941,3.73477l1.96981,0.20486l-0.17334,2.44257c-0.29416,-0.02101 -1.01905,-0.05253 -2.17467,-0.09455c-1.15562,-0.04202 -2.48459,-0.06303 -3.9869,-0.06303c-0.64085,0 -1.27381,0.02101 -1.8989,0.06303c-0.62509,0.04202 -1.02168,0.07354 -1.18977,0.09455l-0.17334,-2.25347l2.03285,-0.39396c0.02101,-0.12607 0.07617,-0.53842 0.16546,-1.23704c0.0893,-0.69863 0.13395,-1.21078 0.13395,-1.53645v-11.26733c0,-0.94551 -0.0499,-1.76233 -0.14971,-2.45045c-0.0998,-0.68812 -0.14971,-1.0637 -0.14971,-1.12673l-2.00133,-0.3782l0.17334,-2.42681c0.16809,0.02101 0.56468,0.05253 1.18977,0.09455c0.62509,0.04202 1.25805,0.06303 1.8989,0.06303c1.51282,0 2.84966,-0.02101 4.01054,-0.06303c1.16088,-0.04202 1.88839,-0.07354 2.18255,-0.09455" data-paper-data="{&quot;elementType&quot;:&quot;letter&quot;,&quot;baseline&quot;:70.99609375,&quot;baselineProportion&quot;:0.9931693989071039,&quot;fontSize&quot;:100}"></path></g></g></g></g><g data-paper-data="{&quot;elementType&quot;:&quot;emblem&quot;}" fill="#ffffff" stroke-width="1"><g data-paper-data="{&quot;baselineProportion&quot;:0.9792642140468227,&quot;fontSize&quot;:100,&quot;baseline&quot;:71.484375,&quot;elementType&quot;:&quot;word&quot;}"><path d="M192.59192,204.96584c-0.2771,-4.47977 -0.69275,-7.75878 -1.24695,-9.83703c0,-0.09237 -0.43874,-1.17767 -1.31622,-3.25592c-4.24886,-0.46183 -7.82806,-0.69275 -10.7376,-0.69275h-7.27386c-0.2771,1.61641 -0.5542,3.60229 -0.8313,5.95764c-0.2771,2.35535 -0.41565,4.20268 -0.41565,5.54199v49.53153c0,5.03397 0.41565,10.50669 1.24695,16.41814l9.21356,0.90057l-0.69275,10.7376c-1.33931,-0.09237 -4.58369,-0.23092 -9.73312,-0.41565c-5.14943,-0.18473 -11.07243,-0.2771 -17.769,-0.2771c-2.72481,0 -5.56508,0.09237 -8.52081,0.2771c-2.95573,0.18473 -4.84924,0.32328 -5.68054,0.41565l-0.69275,-9.90631l9.35211,-1.73187c0.09237,-0.5542 0.32328,-2.36689 0.69275,-5.43808c0.36947,-3.07119 0.5542,-5.32262 0.5542,-6.7543v-49.53153c0,-3.87939 -0.18473,-7.37777 -0.5542,-10.49514c-0.36947,-3.11737 -0.60038,-4.86079 -0.69275,-5.23025h-6.65039c-2.81718,0 -6.6042,0.23092 -11.36108,0.69275c-0.8313,2.07825 -1.27004,3.16355 -1.31622,3.25592c-0.5542,2.07825 -0.96985,5.35726 -1.24695,9.83703l-10.25268,-0.69275l1.03912,-23.55345l2.70172,-2.56317c1.43168,0.18473 4.17958,0.46183 8.24371,0.8313c4.06413,0.36947 6.69657,0.5542 7.89733,0.5542h46.27561c1.15458,0 3.78703,-0.18473 7.89733,-0.5542c4.11031,-0.36947 6.85821,-0.64657 8.24371,-0.8313l2.70172,2.56317l1.17767,23.55345z" data-paper-data="{&quot;elementType&quot;:&quot;letter&quot;,&quot;baseline&quot;:71.484375,&quot;baselineProportion&quot;:0.9932157394843962,&quot;fontSize&quot;:100}"></path><path d="M229.91722,260.93993c1.98588,2.12443 2.97882,5.08016 2.97882,8.86718c0,3.60229 -0.99294,6.48875 -2.97882,8.65936c-1.98588,2.17061 -4.73378,3.25592 -8.24371,3.25592c-3.50993,0 -6.25783,-1.08531 -8.24371,-3.25592c-1.98588,-2.17061 -2.97882,-5.05707 -2.97882,-8.65936c0,-3.60229 0.99294,-6.51184 2.97882,-8.72863c1.98588,-2.2168 4.73378,-3.32519 8.24371,-3.32519c3.50993,0 6.25783,1.06221 8.24371,3.18664z" data-paper-data="{&quot;elementType&quot;:&quot;letter&quot;,&quot;baseline&quot;:15.380859375,&quot;baselineProportion&quot;:0.9104046242774566,&quot;fontSize&quot;:100}"></path><path d="M303.33472,178.15646c5.77291,0 11.09552,0.96985 15.96786,2.90954c4.87233,1.9397 8.75172,4.74533 11.63818,8.4169c2.88645,3.67157 4.32968,8.02434 4.32968,13.05831c0,6.14237 -1.82424,11.38417 -5.47271,15.72539c-3.64848,4.34122 -8.40535,7.22768 -14.27062,8.65936v1.03912c7.29695,1.15458 13.13913,3.79857 17.52654,7.93197c4.38741,4.1334 6.58111,9.75621 6.58111,16.86843c0,9.00573 -3.20974,15.84085 -9.62921,20.50536c-6.41947,4.66451 -14.50154,6.99676 -24.2462,6.99676c-4.80306,0 -10.16031,-0.13855 -16.07177,-0.41565c-7.57405,-0.18473 -12.6773,-0.2771 -15.30975,-0.2771c-2.72481,0 -5.39189,0.09237 -8.00125,0.2771c-2.60935,0.18473 -4.2835,0.32328 -5.02243,0.41565l-0.76202,-9.90631l8.52081,-1.73187c0.2771,-1.52405 0.56574,-3.60229 0.86594,-6.23474c0.30019,-2.63244 0.45029,-4.61832 0.45029,-5.95764v-49.53153c0,-2.81718 -0.11546,-5.73827 -0.34637,-8.76327c-0.23092,-3.025 -0.5542,-5.34571 -0.96985,-6.96212l-8.38226,-1.6626l0.76202,-10.66833c0.73893,0.09237 2.41307,0.23092 5.02243,0.41565c2.60935,0.18473 5.27644,0.2771 8.00125,0.2771c3.32519,0 8.05898,-0.23092 14.20135,-0.69275c1.98588,-0.09237 4.58369,-0.23092 7.79342,-0.41565c3.20974,-0.18473 5.48426,-0.2771 6.82357,-0.2771M292.80494,190.34884c-0.09237,1.29313 -0.18473,3.19819 -0.2771,5.71518c-0.09237,2.51699 -0.13855,4.72224 -0.13855,6.61575v49.53153c0,6.69657 0.13855,12.03073 0.41565,16.00249c2.54008,0.2771 5.19561,0.41565 7.96661,0.41565c5.21871,0 9.38674,-1.58178 12.50411,-4.74533c3.11737,-3.16355 4.67605,-7.53941 4.67605,-13.12759c0,-11.08398 -6.23474,-16.60288 -18.70421,-16.55669h-1.45477l0.96985,-12.4002h0.90057c4.71069,0 8.3938,-1.48941 11.04934,-4.46823c2.65554,-2.97882 3.9833,-7.33159 3.9833,-13.05831c0,-4.06413 -1.39704,-7.49323 -4.19113,-10.28732c-2.79409,-2.79409 -6.36174,-4.19113 -10.70297,-4.19113c-1.61641,0 -3.94867,0.18473 -6.99676,0.5542z" data-paper-data="{&quot;elementType&quot;:&quot;letter&quot;,&quot;baseline&quot;:71.484375,&quot;baselineProportion&quot;:0.9932157394843962,&quot;fontSize&quot;:100}"></path><path d="M380.35451,260.93993c1.98588,2.12443 2.97882,5.08016 2.97882,8.86718c0,3.60229 -0.99294,6.48875 -2.97882,8.65936c-1.98588,2.17061 -4.73378,3.25592 -8.24371,3.25592c-3.50993,0 -6.25783,-1.08531 -8.24371,-3.25592c-1.98588,-2.17061 -2.97882,-5.05707 -2.97882,-8.65936c0,-3.60229 0.99294,-6.51184 2.97882,-8.72863c1.98588,-2.2168 4.73378,-3.32519 8.24371,-3.32519c3.50993,0 6.25783,1.06221 8.24371,3.18664z" data-paper-data="{&quot;elementType&quot;:&quot;letter&quot;,&quot;baseline&quot;:15.380859375,&quot;baselineProportion&quot;:0.9104046242774566,&quot;fontSize&quot;:100}"></path></g></g></g></svg>